<?xml version="1.0" encoding="UTF-8"?><svg id="a" xmlns="http://www.w3.org/2000/svg" viewBox="0 0 3000 3000"><defs><style>.b{fill:#fff;}</style></defs><path class="b" d="M788,472.76c-97.92-92.74-227.69-144.45-362.59-144.45H83.39c236.22,223.7,560.97,531.33,853.39,808.31l-71.42,74.33c-41.84,43.62-40,112.98,4.1,154.28l75.14,66.67c-12.15-51.17,6.48-85.94,33.95-109.26,38.27-32.66,93.82-43.13,106.94-45.18,1.83-.32,2.86-.43,2.86-.43l-101.16-93.82-26.45-24.56-23.54-21.81v-56.46c0-68.72,55.76-81.84,124.48-81.84h281.46L788,472.76Z"/><path class="b" d="M2895.58,1229.09c-167.02-640.7-710.01-949.2-1348.88-900.78l418.84,396.65-89.12,84.37-355.41-336.57c-97.92-92.74-227.69-144.45-362.59-144.45h-344.72l707.69,670.23h131.34c0,62.73-25.42,108.93-66.56,139.38-33.58,24.89-77.62,39.35-126.86,43.78l100.35,96.14-463,440.11-.27-.92L83.39,2676.42H607.11c134.9,0,264.67-51.71,362.59-144.45l631.31-597.89,89.07,84.43c-77.03,72.98-633.41,599.94-694.68,657.92h344.72c134.9,0,264.67-51.71,362.59-144.45l264.78-250.74,89.12,84.37-328.2,310.82c189.26,3.51,373.6-37.89,534.14-115.79l.54,.54,1.35-1.46h.06c483.72-226.23,764.1-799.13,631.09-1330.63Z"/><path class="b" d="M1098.55,1123.28c-1.08,4.26-1.62,8.69-1.62,13.23,0,19.49,9.88,36.6,24.94,46.69,8.91,5.99,19.65,9.45,31.2,9.45s22.35-3.45,31.26-9.45c15.01-10.09,24.88-27.21,24.88-46.69,0-14.63-5.56-27.91-14.74-37.89-10.26-11.23-24.99-18.25-41.4-18.25-26.45,0-48.64,18.3-54.52,42.91Z"/></svg>